<?xml version="1.0" encoding="UTF-8"?>
<!DOCTYPE svg PUBLIC "-//W3C//DTD SVG 1.1//EN" "http://www.w3.org/Graphics/SVG/1.1/DTD/svg11.dtd">
<!-- Creator: CorelDRAW 2020 (64-Bit) -->
<svg xmlns="http://www.w3.org/2000/svg" xml:space="preserve" width="158.232mm" height="105.402mm" version="1.1" style="shape-rendering:geometricPrecision; text-rendering:geometricPrecision; image-rendering:optimizeQuality; fill-rule:evenodd; clip-rule:evenodd"
viewBox="0 0 1675.3 1115.96"
 xmlns:xlink="http://www.w3.org/1999/xlink"
 xmlns:xodm="http://www.corel.com/coreldraw/odm/2003">
 <defs>
  <style type="text/css">
   <![CDATA[
    .fil3 {fill:#FEFEFE}
    .fil2 {fill:#FEFDFE}
    .fil1 {fill:#FEFEFE}
    .fil0 {fill:#FEFEFE;fill-rule:nonzero}
   ]]>
  </style>
 </defs>
 <g id="Слой_x0020_1">
  <metadata id="CorelCorpID_0Corel-Layer"/>
  <g id="_2145890249488">
   <path class="fil0" d="M363.44 1092.76l0 -101.82 36.48 0c6.41,0 11.31,0.33 14.71,0.97 4.75,0.83 8.73,2.42 11.94,4.74 3.22,2.35 5.8,5.62 7.76,9.81 1.96,4.19 2.92,8.82 2.92,13.87 0,8.63 -2.61,15.95 -7.85,21.92 -5.22,6 -14.68,8.98 -28.36,8.98l-24.78 0 0 41.52 -12.82 0zm12.82 -53.47l24.96 0c8.28,0 14.12,-1.61 17.61,-4.86 3.46,-3.25 5.19,-7.8 5.19,-13.7 0,-4.24 -1.01,-7.89 -3.06,-10.93 -2.05,-3.03 -4.74,-5.05 -8.07,-6.02 -2.16,-0.59 -6.14,-0.9 -11.92,-0.9l-24.71 0 0 36.41z"/>
   <path class="fil0" d="M499.71 1068.87l12.28 1.71c-1.91,7.51 -5.49,13.37 -10.71,17.52 -5.22,4.15 -11.87,6.23 -19.99,6.23 -10.21,0 -18.3,-3.32 -24.29,-9.95 -5.98,-6.61 -8.97,-15.93 -8.97,-27.9 0,-12.37 3.01,-21.99 9.06,-28.82 6.05,-6.85 13.9,-10.26 23.54,-10.26 9.33,0 16.95,3.34 22.87,10.05 5.91,6.71 8.88,16.14 8.88,28.3 0,0.73 -0.02,1.85 -0.07,3.32l-52.15 0c0.45,8.08 2.61,14.29 6.52,18.58 3.89,4.29 8.77,6.45 14.59,6.45 4.34,0 8.05,-1.21 11.11,-3.63 3.08,-2.42 5.51,-6.28 7.31,-11.59zm-38.86 -20.05l38.99 0c-0.52,-6.21 -2.02,-10.86 -4.48,-13.96 -3.76,-4.81 -8.66,-7.23 -14.66,-7.23 -5.44,0 -10.01,1.92 -13.72,5.76 -3.69,3.84 -5.73,8.98 -6.14,15.43z"/>
   <path class="fil0" d="M526.6 1091.27l0 -73.81 10.66 0 0 11.31c2.72,-5.24 5.87,-7.81 8.22,-9.41 3.42,-2.33 11.42,-4.17 15.34,-2.21l-0.01 10.93c-5.98,-1.07 -13.47,1.24 -15.97,3.23 -2.05,1.64 -3.51,3.91 -4.39,6.83 -1.33,4.43 -1.98,9.29 -1.98,14.58l0 38.56 -11.87 0z"/>
   <path class="fil0" d="M575.85 1091.27l0 -64.14 -10.52 0 0 -9.67 10.52 0 0 -7.82c0,-4.95 0.41,-8.63 1.24,-11.02 1.15,-3.22 3.13,-5.85 6,-7.87 2.86,-2.01 6.88,-3.01 12.05,-3.01 3.35,0 7.04,0.43 11.09,1.26l-1.78 10.95c-2.47,-0.45 -4.79,-0.69 -6.99,-0.69 -3.6,0 -6.14,0.81 -7.65,2.42 -1.48,1.61 -2.23,4.62 -2.23,9.03l0 6.75 13.63 0 0 9.67 -13.49 0 0 64.14 -11.87 0z"/>
   <path class="fil0" d="M657.17 1068.87l12.28 1.71c-1.91,7.51 -5.49,13.37 -10.71,17.52 -5.22,4.15 -11.87,6.23 -19.99,6.23 -10.21,0 -18.3,-3.32 -24.29,-9.95 -5.98,-6.61 -8.97,-15.93 -8.97,-27.9 0,-12.37 3.01,-21.99 9.06,-28.82 6.05,-6.85 13.9,-10.26 23.54,-10.26 9.33,0 16.95,3.34 22.87,10.05 5.91,6.71 8.88,16.14 8.88,28.3 0,0.73 -0.02,1.85 -0.07,3.32l-52.15 0c0.45,8.08 2.61,14.29 6.52,18.58 3.89,4.29 8.77,6.45 14.59,6.45 4.34,0 8.05,-1.21 11.11,-3.63 3.08,-2.42 5.51,-6.28 7.31,-11.59zm-38.86 -20.05l38.99 0c-0.52,-6.21 -2.02,-10.86 -4.48,-13.96 -3.76,-4.81 -8.66,-7.23 -14.66,-7.23 -5.44,0 -10.01,1.92 -13.72,5.76 -3.69,3.84 -5.73,8.98 -6.14,15.43z"/>
   <path class="fil0" d="M730.19 1065.74l11.6 1.71c-1.28,8.41 -4.52,14.98 -9.76,19.74 -5.24,4.76 -11.69,7.13 -19.32,7.13 -9.56,0 -17.25,-3.29 -23.05,-9.88 -5.82,-6.59 -8.72,-16.02 -8.72,-28.3 0,-7.96 1.26,-14.91 3.75,-20.88 2.5,-5.95 6.3,-10.43 11.42,-13.39 5.11,-2.99 10.66,-4.48 16.68,-4.48 7.58,0 13.81,2.01 18.62,6.07 4.83,4.05 7.94,9.81 9.29,17.25l-11.47 1.85c-1.1,-4.95 -3.04,-8.67 -5.85,-11.19 -2.79,-2.49 -6.16,-3.74 -10.12,-3.74 -5.98,0 -10.84,2.25 -14.59,6.75 -3.73,4.53 -5.6,11.64 -5.6,21.4 0,9.91 1.8,17.09 5.4,21.57 3.62,4.48 8.32,6.73 14.1,6.73 4.68,0 8.57,-1.49 11.67,-4.5 3.12,-2.99 5.1,-7.61 5.94,-13.84z"/>
   <path class="fil0" d="M777.68 1081.6l1.62 11.04c-3.33,0.73 -6.32,1.11 -8.93,1.11 -4.3,0 -7.62,-0.71 -10.01,-2.16 -2.36,-1.45 -4.03,-3.32 -4.99,-5.66 -0.97,-2.35 -1.44,-7.28 -1.44,-14.79l0 -42.52 -8.77 0 0 -9.67 8.77 0 0 -25.64 11.87 -0.13 0 25.76 11.87 0 0 9.67 -11.87 0 0 43.23c0,3.58 0.2,5.88 0.63,6.9 0.41,1.02 1.08,1.83 2.02,2.44 0.94,0.59 2.29,0.9 4.05,0.9 1.3,0 3.04,-0.17 5.17,-0.5z"/>
   <path class="fil0" d="M827.83 1092.76l0 -101.82 36.25 0c7.38,0 13.29,1.02 17.76,3.08 4.45,2.06 7.94,5.24 10.46,9.53 2.54,4.27 3.8,8.75 3.8,13.44 0,4.34 -1.12,8.44 -3.35,12.28 -2.23,3.84 -5.6,6.94 -10.12,9.31 5.85,1.8 10.34,4.88 13.47,9.24 3.15,4.34 4.72,9.48 4.72,15.41 0,4.79 -0.97,9.22 -2.88,13.32 -1.91,4.1 -4.27,7.25 -7.08,9.48 -2.81,2.2 -6.34,3.89 -10.57,5.02 -4.25,1.14 -9.45,1.71 -15.61,1.71l-36.86 0zm12.82 -59.02l20.89 0c5.67,0 9.74,-0.4 12.19,-1.18 3.26,-1.02 5.71,-2.73 7.35,-5.1 1.64,-2.37 2.47,-5.33 2.47,-8.91 0,-3.39 -0.76,-6.38 -2.32,-8.94 -1.53,-2.58 -3.73,-4.36 -6.59,-5.31 -2.86,-0.95 -7.76,-1.42 -14.68,-1.42l-19.32 0 0 30.86zm0 47.07l24.06 0c4.14,0 7.04,-0.17 8.73,-0.5 2.92,-0.54 5.4,-1.47 7.38,-2.77 1.98,-1.3 3.6,-3.2 4.88,-5.69 1.28,-2.49 1.91,-5.36 1.91,-8.6 0,-3.82 -0.92,-7.11 -2.79,-9.93 -1.84,-2.82 -4.41,-4.79 -7.69,-5.92 -3.26,-1.14 -7.98,-1.71 -14.12,-1.71l-22.35 0 0 35.13zm121.97 11.94l0 -10.97c-5.44,8.37 -12.82,12.54 -22.15,12.54 -4.12,0 -7.96,-0.83 -11.54,-2.49 -3.58,-1.68 -6.23,-3.77 -7.96,-6.28 -1.73,-2.54 -2.95,-5.62 -3.64,-9.27 -0.47,-2.46 -0.72,-6.35 -0.72,-11.66l0 -45.67 11.87 0 0 40.84c0,6.52 0.25,10.93 0.72,13.18 0.74,3.29 2.32,5.85 4.75,7.73 2.41,1.87 5.37,2.82 8.93,2.82 3.55,0 6.88,-0.95 9.98,-2.87 3.1,-1.92 5.31,-4.55 6.61,-7.85 1.28,-3.29 1.93,-8.11 1.93,-14.39l0 -39.46 11.87 0 0 73.81 -10.66 0zm24.58 -22.04l11.74 -1.99c0.65,4.95 2.5,8.75 5.51,11.4 3.01,2.63 7.24,3.96 12.64,3.96 5.46,0 9.51,-1.16 12.17,-3.51 2.63,-2.32 3.96,-5.07 3.96,-8.22 0,-2.82 -1.19,-5.05 -3.55,-6.66 -1.66,-1.11 -5.71,-2.51 -12.14,-4.24 -8.68,-2.3 -14.68,-4.29 -18.06,-5.97 -3.35,-1.71 -5.89,-4.03 -7.62,-7.02 -1.73,-2.96 -2.61,-6.26 -2.61,-9.86 0,-3.29 0.72,-6.33 2.14,-9.12 1.44,-2.8 3.37,-5.12 5.82,-6.97 1.84,-1.42 4.36,-2.63 7.53,-3.63 3.19,-1 6.59,-1.49 10.23,-1.49 5.49,0 10.3,0.83 14.44,2.51 4.16,1.66 7.22,3.93 9.2,6.78 1.96,2.87 3.33,6.68 4.07,11.47l-11.6 1.71c-0.52,-3.84 -2.05,-6.85 -4.56,-9.01 -2.52,-2.16 -6.07,-3.22 -10.68,-3.22 -5.42,0 -9.31,0.95 -11.63,2.84 -2.32,1.9 -3.49,4.12 -3.49,6.66 0,1.61 0.47,3.08 1.44,4.39 0.97,1.33 2.47,2.44 4.54,3.32 1.19,0.47 4.65,1.54 10.46,3.2 8.37,2.35 14.21,4.29 17.54,5.78 3.33,1.49 5.94,3.7 7.83,6.54 1.91,2.87 2.86,6.42 2.86,10.69 0,4.15 -1.15,8.06 -3.46,11.73 -2.32,3.67 -5.64,6.52 -9.98,8.53 -4.36,2.01 -9.29,3.01 -14.77,3.01 -9.08,0 -16.03,-1.99 -20.8,-5.95 -4.77,-3.98 -7.8,-9.86 -9.13,-17.66zm72.18 -65.56l0 -14.22 11.87 0 0 14.22 -11.87 0zm0 87.6l0 -73.81 11.87 0 0 73.81 -11.87 0zm29.98 0l0 -73.81 10.66 0 0 10.48c5.13,-8.03 12.55,-12.04 22.24,-12.04 4.23,0 8.1,0.81 11.63,2.39 3.53,1.59 6.18,3.7 7.94,6.28 1.75,2.58 2.99,5.66 3.69,9.22 0.43,2.32 0.65,6.38 0.65,12.16l0 45.32 -11.87 0 0 -44.84c0,-5.1 -0.45,-8.91 -1.37,-11.42 -0.92,-2.51 -2.56,-4.53 -4.9,-6.04 -2.34,-1.49 -5.11,-2.25 -8.25,-2.25 -5.04,0 -9.38,1.68 -13.04,5.07 -3.67,3.36 -5.49,9.79 -5.49,19.22l0 40.27 -11.87 0zm122.8 -23.89l12.28 1.71c-1.91,7.51 -5.49,13.37 -10.7,17.52 -5.22,4.15 -11.87,6.23 -19.99,6.23 -10.21,0 -18.3,-3.32 -24.29,-9.95 -5.98,-6.61 -8.97,-15.93 -8.97,-27.9 0,-12.37 3.01,-21.99 9.06,-28.82 6.05,-6.85 13.9,-10.26 23.54,-10.26 9.33,0 16.96,3.34 22.87,10.05 5.91,6.71 8.88,16.14 8.88,28.3 0,0.73 -0.02,1.85 -0.07,3.32l-52.15 0c0.45,8.08 2.61,14.29 6.52,18.58 3.89,4.29 8.77,6.45 14.59,6.45 4.34,0 8.05,-1.21 11.11,-3.63 3.08,-2.42 5.51,-6.28 7.31,-11.59zm-38.86 -20.05l38.99 0c-0.52,-6.21 -2.02,-10.86 -4.48,-13.96 -3.76,-4.81 -8.66,-7.23 -14.66,-7.23 -5.44,0 -10.01,1.92 -13.72,5.76 -3.69,3.84 -5.73,8.98 -6.14,15.43zm61.41 21.9l11.74 -1.99c0.65,4.95 2.5,8.75 5.51,11.4 3.01,2.63 7.24,3.96 12.64,3.96 5.46,0 9.51,-1.16 12.17,-3.51 2.63,-2.32 3.96,-5.07 3.96,-8.22 0,-2.82 -1.19,-5.05 -3.55,-6.66 -1.66,-1.11 -5.71,-2.51 -12.14,-4.24 -8.68,-2.3 -14.68,-4.29 -18.06,-5.97 -3.35,-1.71 -5.89,-4.03 -7.62,-7.02 -1.73,-2.96 -2.61,-6.26 -2.61,-9.86 0,-3.29 0.72,-6.33 2.14,-9.12 1.44,-2.8 3.37,-5.12 5.82,-6.97 1.84,-1.42 4.36,-2.63 7.53,-3.63 3.19,-1 6.59,-1.49 10.23,-1.49 5.49,0 10.3,0.83 14.44,2.51 4.16,1.66 7.22,3.93 9.2,6.78 1.96,2.87 3.33,6.68 4.07,11.47l-11.6 1.71c-0.52,-3.84 -2.05,-6.85 -4.56,-9.01 -2.52,-2.16 -6.07,-3.22 -10.68,-3.22 -5.42,0 -9.31,0.95 -11.63,2.84 -2.32,1.9 -3.49,4.12 -3.49,6.66 0,1.61 0.47,3.08 1.44,4.39 0.97,1.33 2.47,2.44 4.54,3.32 1.19,0.47 4.66,1.54 10.46,3.2 8.37,2.35 14.21,4.29 17.54,5.78 3.33,1.49 5.94,3.7 7.83,6.54 1.91,2.87 2.86,6.42 2.86,10.69 0,4.15 -1.15,8.06 -3.46,11.73 -2.32,3.67 -5.65,6.52 -9.98,8.53 -4.36,2.01 -9.29,3.01 -14.77,3.01 -9.09,0 -16.03,-1.99 -20.8,-5.95 -4.77,-3.98 -7.8,-9.86 -9.13,-17.66zm67.46 0l11.74 -1.99c0.65,4.95 2.5,8.75 5.51,11.4 3.01,2.63 7.24,3.96 12.64,3.96 5.46,0 9.51,-1.16 12.17,-3.51 2.63,-2.32 3.96,-5.07 3.96,-8.22 0,-2.82 -1.19,-5.05 -3.55,-6.66 -1.66,-1.11 -5.71,-2.51 -12.14,-4.24 -8.68,-2.3 -14.68,-4.29 -18.06,-5.97 -3.35,-1.71 -5.89,-4.03 -7.62,-7.02 -1.73,-2.96 -2.61,-6.26 -2.61,-9.86 0,-3.29 0.72,-6.33 2.14,-9.12 1.44,-2.8 3.37,-5.12 5.82,-6.97 1.84,-1.42 4.36,-2.63 7.53,-3.63 3.19,-1 6.59,-1.49 10.23,-1.49 5.49,0 10.3,0.83 14.44,2.51 4.16,1.66 7.22,3.93 9.2,6.78 1.96,2.87 3.33,6.68 4.07,11.47l-11.6 1.71c-0.52,-3.84 -2.05,-6.85 -4.56,-9.01 -2.52,-2.16 -6.07,-3.22 -10.68,-3.22 -5.42,0 -9.31,0.95 -11.63,2.84 -2.32,1.9 -3.49,4.12 -3.49,6.66 0,1.61 0.47,3.08 1.44,4.39 0.97,1.33 2.47,2.44 4.54,3.32 1.19,0.47 4.65,1.54 10.46,3.2 8.37,2.35 14.21,4.29 17.54,5.78 3.33,1.49 5.94,3.7 7.83,6.54 1.91,2.87 2.86,6.42 2.86,10.69 0,4.15 -1.15,8.06 -3.46,11.73 -2.32,3.67 -5.64,6.52 -9.98,8.53 -4.36,2.01 -9.29,3.01 -14.77,3.01 -9.08,0 -16.03,-1.99 -20.8,-5.95 -4.77,-3.98 -7.8,-9.86 -9.13,-17.66z"/>
   <path class="fil0" d="M1482.15 1057.05l12.82 3.41c-2.68,11.07 -7.49,19.48 -14.44,25.29 -6.95,5.81 -15.45,8.72 -25.5,8.72 -10.39,0 -18.85,-2.23 -25.37,-6.71 -6.52,-4.46 -11.47,-10.93 -14.86,-19.39 -3.4,-8.48 -5.1,-17.56 -5.1,-27.28 0,-10.6 1.91,-19.84 5.76,-27.73 3.85,-7.89 9.31,-13.89 16.39,-17.99 7.08,-4.1 14.89,-6.14 23.39,-6.14 9.67,0 17.79,2.58 24.35,7.77 6.59,5.19 11.18,12.47 13.76,21.85l-12.55 3.13c-2.23,-7.39 -5.49,-12.8 -9.74,-16.16 -4.25,-3.39 -9.6,-5.07 -16.06,-5.07 -7.4,0 -13.61,1.87 -18.57,5.62 -4.97,3.74 -8.48,8.79 -10.48,15.1 -2.02,6.33 -3.04,12.85 -3.04,19.55 0,8.65 1.19,16.21 3.58,22.66 2.38,6.47 6.09,11.28 11.13,14.48 5.04,3.2 10.48,4.79 16.35,4.79 7.15,0 13.18,-2.18 18.12,-6.52 4.95,-4.36 8.3,-10.81 10.05,-19.39zm26.87 35.72l0 -101.82 11.87 0 0 101.82 -11.87 0zm75.99 0l0 -10.97c-5.44,8.37 -12.82,12.54 -22.15,12.54 -4.12,0 -7.96,-0.83 -11.54,-2.49 -3.58,-1.68 -6.23,-3.77 -7.96,-6.28 -1.73,-2.54 -2.95,-5.62 -3.64,-9.27 -0.47,-2.46 -0.72,-6.35 -0.72,-11.66l0 -45.67 11.87 0 0 40.84c0,6.52 0.25,10.93 0.72,13.18 0.74,3.29 2.32,5.85 4.75,7.73 2.41,1.87 5.37,2.82 8.93,2.82 3.55,0 6.88,-0.95 9.98,-2.87 3.1,-1.92 5.31,-4.55 6.61,-7.85 1.28,-3.29 1.93,-8.11 1.93,-14.39l0 -39.46 11.87 0 0 73.81 -10.66 0zm40.23 0l-11.06 0 0 -101.82 11.87 0 0 36.33c5.02,-6.59 11.4,-9.88 19.18,-9.88 4.3,0 8.39,0.9 12.23,2.73 3.85,1.83 6.99,4.41 9.49,7.7 2.47,3.32 4.43,7.3 5.82,11.97 1.42,4.64 2.11,9.65 2.11,14.95 0,12.61 -2.97,22.37 -8.88,29.25 -5.94,6.9 -13.04,10.33 -21.34,10.33 -8.25,0 -14.73,-3.63 -19.43,-10.85l0 9.29zm-0.13 -37.45c0,8.82 1.15,15.19 3.42,19.13 3.73,6.42 8.77,9.65 15.13,9.65 5.19,0 9.67,-2.37 13.43,-7.11 3.78,-4.74 5.67,-11.8 5.67,-21.19 0,-9.62 -1.8,-16.71 -5.42,-21.28 -3.62,-4.57 -8.01,-6.87 -13.13,-6.87 -5.2,0 -9.67,2.37 -13.43,7.11 -3.78,4.74 -5.67,11.59 -5.67,20.57z"/>
   <g>
    <path class="fil1" d="M819.71 896.91c55.18,1.22 216.68,3.29 263.45,-6.23 146.32,-29.77 151.45,-200.72 74.03,-254.43 -11.99,-8.31 -24.72,-10.93 -34.77,-17.25 5.49,-4.98 18.81,-10.74 26.79,-17.14 65.74,-52.74 64.23,-178.27 -31.84,-223.94 -55.12,-26.2 -122.16,-21.11 -182.18,-21.11l-115.48 0.28 -0 539.81zm107 -313.78c58.4,-0.21 160.06,16.63 160.13,-67.55 0.07,-83.2 -83.4,-70.01 -159.99,-68.85l-0.15 136.4zm-0.13 224.37c26.83,0.76 96.43,2.87 119.28,-2.73 72.3,-17.75 70.52,-124.83 2.17,-140.41 -25.35,-5.78 -92.1,-3.09 -121.12,-2.57l-0.33 145.7z"/>
    <path class="fil1" d="M365.6 895.84l106.61 0.87 0.14 -190.3c74.37,0.04 160,9.28 223.94,-34.29 60.54,-41.25 79.97,-118.16 60.8,-187.23 -18.72,-67.45 -68.1,-109.92 -136.47,-123.22 -27.69,-5.39 -230.73,-8.97 -254.4,-3.66l-0.62 537.84zm107.15 -279.51c28.27,0.92 106.08,2.95 129.27,-3.98 78.2,-23.38 66.83,-138.11 -0.41,-160.7 -24.19,-8.12 -99.81,-5.72 -128.7,-4.85l-0.16 169.52z"/>
    <path class="fil1" d="M1673.89 717.82c-15.99,-1.09 -91.84,-2.46 -103.5,0.77 -8.16,15.53 -2.49,56.87 -41.65,80.32 -28.26,16.92 -71.2,18.94 -101.88,7.76 -66.79,-24.32 -66.2,-123.13 -66.17,-181.6 0.02,-58.92 1.41,-152.63 67.74,-178 29.17,-11.15 75.84,-8.83 102.59,8.09 28.51,18.04 34.86,53.65 38.99,84.62l105.27 0.01c0.84,-54.26 -29.68,-115.54 -72.12,-148.74 -48.15,-37.67 -118.53,-48.95 -177.68,-37.92 -135.46,25.26 -173.22,150.59 -173.33,271.94 -0.06,68.7 4.83,122.4 39.14,183.3 63.48,112.68 223.36,120.54 309.53,56.5 23.02,-17.11 37.89,-34.61 51.7,-59.83 11.14,-20.34 25.46,-64.73 21.36,-87.22z"/>
    <path class="fil1" d="M50.38 315.81c-48.13,14.61 -27.7,89.32 21.71,74.77 48.4,-14.26 28.11,-89.89 -21.71,-74.77z"/>
    <path class="fil1" d="M290.03 66.56c-44.56,14.84 -21.13,80.07 20.68,65.87 44.28,-15.04 21.73,-79.98 -20.68,-65.87z"/>
    <path class="fil1" d="M22.22 482.28c-42.39,15.24 -17.99,80.96 25.16,64.12 41.77,-16.3 17.36,-79.41 -25.16,-64.12z"/>
    <path class="fil1" d="M37.62 399.64c-47.88,11.73 -29.9,75.78 13.13,67.19 43.56,-8.69 29.88,-77.73 -13.13,-67.19z"/>
    <path class="fil1" d="M24.85 563.66c-44.05,14.53 -24.5,77.8 19.45,64.98 42.53,-12.4 22.74,-78.89 -19.45,-64.98z"/>
    <path class="fil1" d="M32.9 648.87c-40.05,14.22 -17.15,70.77 20.37,57.51 36.39,-12.87 18.27,-71.23 -20.37,-57.51z"/>
    <path class="fil1" d="M205 186.29c-39.82,13.36 -20.15,68.65 17.2,58.38 37.99,-10.45 22.09,-71.56 -17.2,-58.38z"/>
    <path class="fil1" d="M527.37 1.73c-38.92,12.09 -19.1,71.33 20.35,57.45 34.89,-12.28 19.44,-69.8 -20.35,-57.45z"/>
    <path class="fil1" d="M247.46 125.28c-39.74,8.86 -25.81,68.89 13.94,59.31 37.35,-9 25.23,-68.04 -13.94,-59.31z"/>
    <path class="fil1" d="M170.78 251.32c-38.31,12.6 -18.96,68.06 18.03,57.33 36.74,-10.66 22.64,-70.71 -18.03,-57.33z"/>
    <path class="fil1" d="M142 322.73c-30.48,13.93 -11.34,63.67 23.15,49.34 31.92,-13.26 11.51,-65.18 -23.15,-49.34z"/>
    <path class="fil1" d="M51.12 732.37c-35.16,12.59 -15.12,63.34 18.06,50.88 31.81,-11.94 17.05,-63.45 -18.06,-50.88z"/>
    <path class="fil1" d="M472.84 36.71c-31.57,11.27 -15.67,59.58 16.93,49.79 33.77,-10.14 17.44,-62.06 -16.93,-49.79z"/>
    <path class="fil1" d="M420.21 73.49c-32.11,11.86 -12.58,61.38 19.71,48.35 30.8,-12.42 13.93,-60.78 -19.71,-48.35z"/>
    <path class="fil1" d="M853.17 37.85c-34.06,7.36 -21.18,57.85 11.63,50.44 31.89,-7.2 22.31,-57.77 -11.63,-50.44z"/>
    <path class="fil1" d="M130.17 393.47c-30.84,7.71 -23.74,52.48 9.82,46.93 29.76,-4.92 21.56,-54.78 -9.82,-46.93z"/>
    <path class="fil1" d="M77.23 813.32c-29.81,11.06 -12.79,55.07 17.52,44.07 11.21,-4.07 17.21,-17.74 13.34,-29.75 -4.24,-13.17 -17.65,-19.22 -30.87,-14.32z"/>
    <path class="fil1" d="M373.21 117.8c-29.56,12.88 -9.35,54.82 18.61,43.01 27.69,-11.7 10.61,-55.74 -18.61,-43.01z"/>
    <path class="fil1" d="M741.57 40.19c-23.87,10.4 -12.01,50.71 17.29,41.55 28.63,-8.95 12.94,-54.73 -17.29,-41.55z"/>
    <path class="fil1" d="M794.86 38.76c-25.65,12.36 -7.54,53.2 20.18,40.34 26.82,-12.44 7.26,-53.57 -20.18,-40.34z"/>
    <path class="fil1" d="M691.65 46.64c-28.54,8.98 -15.86,50.81 13.4,42.16 26.99,-7.98 15.56,-51.27 -13.4,-42.16z"/>
    <path class="fil1" d="M332.43 166.16c-26.51,9.8 -11.3,49.99 15.85,38.52 23.17,-9.79 11.17,-48.51 -15.85,-38.52z"/>
    <path class="fil1" d="M117.96 468.54c-27.66,7.64 -16.11,47.14 11.31,40.18 24.53,-6.23 16.83,-47.95 -11.31,-40.18z"/>
    <path class="fil1" d="M114.31 890.62c-27.84,7.96 -14.3,48.07 12.93,38.02 22.61,-8.35 12.31,-45.24 -12.93,-38.02z"/>
    <path class="fil1" d="M636.69 63.02c-23.31,12.11 -6.76,45.66 17.56,35.91 22.32,-8.95 9.48,-49.96 -17.56,-35.91z"/>
    <path class="fil1" d="M296.25 219.13c-23.64,8.91 -9.46,43.26 13.56,34.26 8.2,-3.2 13.67,-15 9.71,-24.5 -3.47,-8.32 -14.88,-12.92 -23.27,-9.76z"/>
    <path class="fil1" d="M113.98 543.72c-23.27,7.6 -11.28,43.31 13.11,33.9 19.5,-7.53 10.18,-41.51 -13.11,-33.9z"/>
    <path class="fil1" d="M609.98 111.27c9.2,-28.86 -16.68,-37.87 -28.25,-24.23 -6.11,7.2 -7.05,20.46 1.79,25.92 8.28,5.11 18.08,0.93 26.46,-1.69z"/>
    <path class="fil1" d="M152.38 998.17c18.25,1.83 37.36,-22.12 18.09,-32.15 -24.76,-12.88 -30.47,16.16 -18.09,32.15z"/>
    <path class="fil1" d="M556.12 136.46c6.9,-7.82 10.08,-41.43 -16.85,-24.97 -19.67,12.01 -1.71,33.4 16.85,24.97z"/>
    <path class="fil1" d="M262.84 303.62c25.04,4.68 29.09,-20.4 15.55,-27.18 -16.05,-3.45 -27.62,6.8 -15.55,27.18z"/>
    <path class="fil1" d="M105.64 623.51c1.03,6.57 4.93,15.87 10.33,21.21 4.81,4.75 15.37,4.83 20.93,-2.6 5.09,-6.88 3.17,-16.78 -5.06,-20.93 -6.8,-3.43 -18.78,0.63 -26.2,2.31z"/>
    <path class="fil1" d="M486.75 142.78c3.02,7.15 3.97,13.82 6.89,17.08 11.4,7.22 27.15,-4.4 13.89,-19.51 -7.88,0.23 -14.42,0.74 -20.78,2.43z"/>
    <path class="fil1" d="M193.13 1039.64l10.79 14.57c15.79,1.99 23.57,-14.14 5.91,-20.95 -4.09,0.48 -11.29,3.63 -16.69,6.38z"/>
    <path class="fil1" d="M234.01 344.09c0.21,8.63 1.07,12.35 2.14,20.84 7,-3.23 13.23,-6.86 16.52,-9.73 3.69,-4.81 1.94,-12.34 -2.35,-15.87 -6.05,-3.16 -12.14,0.75 -16.3,4.76z"/>
    <path class="fil1" d="M124.14 717.96l14.22 -3.43c6.56,-6.17 9.22,-15.99 1.96,-19.67 -5.13,-2.24 -12.84,3.09 -15.17,6.17l-1.02 16.92z"/>
    <path class="fil1" d="M444.75 179.02c3.02,5.73 6.08,10.23 10.6,14.89 4.7,1.8 11.15,1.17 13.54,-4.2 1.6,-3.95 -0.61,-11.13 -6.89,-13.99l-17.24 3.3z"/>
    <path class="fil2" d="M219.32 413.83c3.78,2.77 7.73,3.72 12.07,1.04 3.79,-4.64 2.76,-9.95 -3.8,-14.15l-13.63 0.21c1.99,6.32 3.33,8.48 5.37,12.9z"/>
    <path class="fil1" d="M257.86 1102.26c-0.69,4.19 0.39,9.54 0.94,13.7 6.16,-0.6 7.15,-1.19 13.48,-3.92 2.94,-6.29 2.42,-10.49 -2.35,-14.46 -5.12,-2.44 -8.5,-0.58 -12.07,4.68z"/>
    <path class="fil2" d="M413.92 218.57c-2.57,3.34 -4.41,10.37 0.79,14.34 6.09,2.09 10.76,-0.95 13.17,-5.31l-1.89 -11.62 -12.08 2.58z"/>
    <path class="fil2" d="M164.57 777l-5.69 -10.02 -10.23 2.65c-2.1,6.53 -1.41,10.81 2.1,12.86 5.51,2.92 9.81,-0.55 13.82,-5.49z"/>
    <rect class="fil3" x="363.13" y="933.35" width="1308.29" height="25.98"/>
   </g>
  </g>
 </g>
</svg>
